# xmcd
#
# Track frame offsets:
#	150
#	23489
#	45726
#	64246
#	88877
#	107112
#	134737
#	157094
#	176203
#	194143
#	221513
#	235233
#
# Disc length: 3427 seconds
#
# Revision: 0
# Processed by: cddbd v1.5.2PL0 Copyright (c) Steve Scherf et al.
# Submitted via: EZCDAudioConverter 7.0.6.1
#
DISCID=b80d610c
DTITLE=Indigenous - Gray Skies
DYEAR=2017
DGENRE=Blues Rock
TTITLE0=Stay Behind
TTITLE1=I`m Missing You
TTITLE2=Lonely Days
TTITLE3=Healers
TTITLE4=On My Way
TTITLE5=Hear My Voice
TTITLE6=Let It Shine
TTITLE7=Don`t Know Where To Go
TTITLE8=Let`s Carry On
TTITLE9=Both To Blame
TTITLE10=You Broke It, You Bought It
TTITLE11=What You Runnin` From
EXTD=
EXTT0=
EXTT1=
EXTT2=
EXTT3=
EXTT4=
EXTT5=
EXTT6=
EXTT7=
EXTT8=
EXTT9=
EXTT10=
EXTT11=
PLAYORDER=
